<svg id="Livello_1" data-name="Livello 1" xmlns="http://www.w3.org/2000/svg" width="200mm" height="200mm" viewBox="0 0 566.93 566.93">
  <rect x="-24.53" y="-13.09" width="615.06" height="592.85" style="fill: red"/>
  <g>
    <path d="M329,288c0,7.49,0,15,0,22.48,0,3.64,1.35,6,4.71,6.7,2,.39,2.53.85,2.29,2.63a6.68,6.68,0,0,0,0,1c0,4.51,0,4.52-4.27,4.52-6,0-12,0-18,0-1.16,0-1.94-.12-1.76-1.57a19,19,0,0,0,0-2.5c0-3,0-3,3.35-3.94,1.93-.57,4.54-4.32,4.63-6.89s0-5,0-7.5c0-14.65-.07-29.31.09-44,0-2.05-.78-3.73-1.19-5.56a3.88,3.88,0,0,0-3.82-3.12c-2.5-.17-2.94-.76-3.08-2.74-.36-5.2-.36-5.2,5.09-5.2,7.16,0,14.33,0,21.49,0,1.82,0,2.71.56,3.53,2.43,1.38,3.13,2.15,6.43,3.37,9.6,2.43,6.32,5,12.62,7,19.07,1.4,4.42,3.73,8.51,4.52,13.13.05.27.33.5.5.75.16-.26.45-.53.46-.8.05-1.33,0-2.66,0-4,0-8.33-.08-16.66.07-25a9,9,0,0,0-1.42-4.92c-.79-1.32-1.92-2.63-4-2.33-1.76.25-2.56-.83-2.67-2.67-.31-5.27-.37-5.27,5.06-5.27,6,0,12,0,18,0,.61,0,1.76.21,1.76.36a29.62,29.62,0,0,1-.09,6.32c-.2,1.09-1.62,1.25-2.87,1.37-2.56.24-4.58,2.78-4.81,5.66-.07,1,0,2,0,3V321c0,1-.05,2,0,3,.08,1.16-.52,1.32-1.51,1.31-3.33-.05-6.66,0-10,0-1.46,0-3.27.26-4.25-.48s-.73-2.6-1.28-3.87c-3-6.79-4.44-14.11-7.6-20.84a74,74,0,0,1-3.22-9.15c-1.21-3.82-2.77-7.52-4.07-11.3s-1.81-7.53-4-10.84c-.4-.59-.2-1.56-.41-2.32-.28-1-.69-2-1-3.06A23,23,0,0,0,329,267C329,274,329,281,329,288Z" style="fill: #fff"/>
    <path d="M410.73,242.35c6,0,12,0,18,0A18.71,18.71,0,0,1,442,247.81a31.41,31.41,0,0,1,9,17.28c2.06,2.48.57,5.59,1.45,8.38.81,2.56.47,5.5.54,8.28.07,3,.51,6.1-.09,9-1.14,5.44-2.16,10.92-4.72,16-4,8-9.86,13.86-18.22,17.05a20.71,20.71,0,0,1-6.87,1.46c-10.66.15-21.32,0-32,.12-1.94,0-2.31-.61-2.1-2.27a23,23,0,0,0,0-2.49c0-2.58,0-2.49,3-3.34a6.2,6.2,0,0,0,3.2-1.78,12.14,12.14,0,0,0,1.77-4.23,11.91,11.91,0,0,0,.05-3c0-16.32,0-32.65,0-49a15.18,15.18,0,0,0-1-5.59c-.74-1.9-1.71-3.29-4.09-3.42s-2.81-.8-2.91-2.91c0-.33,0-.67,0-1-.05-4-.05-4,3.76-4ZM412,282.79q0,12,0,23.92a15.68,15.68,0,0,0,.89,6.1c.62,1.58,1.13,2.55,2.92,2.52,2.49-.05,5,0,7.48,0,.47,0,1.15,0,1.37-.23,1.75-2.11,3.93-3.73,5.44-6.18,3.35-5.43,3.24-11.64,4.89-17.44-.36-10.54,1-21.15-1.87-31.59a18,18,0,0,0-3.19-6.2c-1.91-2.59-4.44-2.35-7.05-2.33-2.16,0-4.33,0-6.48,0-1.82-.05-2.76.54-3.57,2.4a8.77,8.77,0,0,0-.83,3.65Q412,270.09,412,282.79Z" style="fill: #fff"/>
    <path d="M282,325.31H270c-4,0-4,0-4-4.26a4.63,4.63,0,0,0,0-1.49c-.8-2.21,1.28-2.44,2.3-2.91,4.17-1.95,4.71-2.54,4.72-6.91a33.8,33.8,0,0,0-1.93-10.18c-.32-1-.65-1.26-1.6-1.25-3.16,0-6.32,0-9.48,0-1.62,0-3.23.22-4.84.34.09,1.78-.85,3.37-1.06,5a48.18,48.18,0,0,0-.06,8c.16,3.36,2.38,5.05,5.39,5.56,1.3.22,1.67.54,1.6,1.77-.11,2-.1,3.95-.15,5.93-1.94.13-3.89.34-5.83.36-6.49,0-13,0-19.47,0-2.52,0-2.52,0-2.56-2.72a7.51,7.51,0,0,0,0-1.5c-.62-2.68.72-3.87,3.08-4.84,3.35-1.38,4.73-4.73,5.82-7.77,1.73-4.79,2.81-9.83,4.1-14.77,1.37-5.26,2.33-10.66,4.13-15.77,1.19-3.39,1.76-6.9,2.82-10.3,1.33-4.29,2.22-8.73,3.36-13.09.85-3.29,2.21-6.45,2.71-9.86a2.36,2.36,0,0,1,2.51-2.35c3,0,6,0,9,0a2.2,2.2,0,0,1,2.43,1.91c.89,7,3.42,13.58,5.14,20.36,2.2,8.72,4.21,17.49,6.66,26.16,1.23,4.31,2.07,8.78,3.26,13.14.61,2.23,1.19,4.49,2,6.65a11.49,11.49,0,0,0,6.47,6.62c1.14.47,1.58.72,1.51,1.88-.11,2-.12,3.95-.17,5.92-2,.12-3.9.3-5.86.33C288.66,325.35,285.33,325.31,282,325.31Zm-18.38-39a20.49,20.49,0,0,1,2.48,0c1.5.18,2.13-.36,1.91-1.89-.13-.95.19-2.21-.32-2.82-1.58-1.89-.19-4.27-1.52-6.38-1.15-1.83-.83-4.58-1.18-6.92a3.43,3.43,0,0,0-.34-.85,4.69,4.69,0,0,0-1,.77,3.73,3.73,0,0,0-.61,1.23c-1.49,4.53-2,9.31-3.92,13.76-1,2.25-.07,3.05,2.55,3.08Z" style="fill: #fff"/>
    <path d="M139,266.82q0,10.73,0,21.47c0,3,0,3,3.24,3,2.48,0,4.95.11,7.43.16.11,2.62.17,5.24.35,7.85.1,1.42-.19,2.11-1.84,2-2.65-.14-5.32-.08-8,0-.41,0-1.18.73-1.14,1,.37,3.19-.24,6.32.72,9.64,1.09,3.77,3.38,4.81,6.44,5.18,1.61.19,1.94.7,1.79,2.09-.08.82,0,1.66,0,2.49,0,3.48,0,3.49-3.29,3.5-9,0-18,0-27,0-1.15,0-2-.1-1.76-1.57a23,23,0,0,0,0-2.49c0-3,0-3,3.33-3.95a6.45,6.45,0,0,0,4.65-6.38c.06-2.66,0-5.32,0-8,0-1.33-.4-1.68-1.68-1.66-4.5.06-9,0-13.49,0H103.4l-8-.09c-.14-2.77-.24-5.55-.42-8.32a5.33,5.33,0,0,1,1.28-3.49c3.41-5.2,6.49-10.61,9.73-15.92,3.58-5.84,7.21-11.66,10.83-17.49,2.38-3.84,5-7.54,7-11.56,1-2,2.13-2.14,3.83-2.11,3.64.07,7.29.11,10.93.16.12,3.61.29,7.22.34,10.83C139.08,257.83,139,262.32,139,266.82Zm-15,10.43c0-4.33,0-8.66,0-13,0-.28-.26-.55-.39-.83a3.25,3.25,0,0,0-.59.58c-1,1.74-2,3.52-3,5.24-4.15,6.79-7.92,13.81-12.63,20.25a1.56,1.56,0,0,0-.29,1.31c.15.3.8.49,1.23.5,4.67,0,9.33,0,14,0,1.22,0,1.77-.22,1.74-1.61C124,285.58,124,281.41,124,277.25Z" style="fill: #fff"/>
    <path d="M172,283.33c0-8,0-16,0-24a14.23,14.23,0,0,0-1-5.59c-.77-1.91-1.63-3.36-4.05-3.48s-2.86-.79-3-2.85c-.29-5.09-.29-5.09,4.69-5.09,8.16,0,16.32,0,24.48,0,1.61,0,2,.57,1.84,2-.09.82,0,1.66,0,2.5-.06,2.83-.14,3.12-3.34,3.47a4.32,4.32,0,0,0-3.58,2.9,12.53,12.53,0,0,0-1,5q-.1,23.71,0,47.44a12.4,12.4,0,0,0,1,5c1.2,2.59,4,3.15,6.41,3.5a46.43,46.43,0,0,0,9,.07c2.41-.12,3.89-1.94,5.58-3.43,1.23-1.09.9-2.35.95-3.62,0-.67,0-1.33,0-2,.12-2.27.27-4.55.41-6.82,2.32,0,4.64,0,7-.11,1.33-.07,1.66.42,1.65,1.69-.06,6.16,0,12.32,0,18.48,0,2.15-.07,4.3-.1,6.45-2.28.13-4.55.37-6.83.37q-22.72.06-45.46,0c-2.56,0-2.56,0-2.59-2.69,0-.66,0-1.33,0-2,0-1-.27-2.25.23-2.85s1.81-.27,2.74-.47c2.25-.47,5-4.18,5-7,.07-5,0-10,0-15Z" style="fill: #fff"/>
    <path d="M465,250.55c0,1.88-.21,2.78.06,3.52a4.25,4.25,0,0,0,1.62,2.17c.33.2,1.36-.58,1.94-1.08.29-.25.17-1.19.4-1.26.86-.24,2-.63,2.63-.26.91.53.23,1.38-.41,2-.37.33-.68.74-1.07,1.05-3.57,2.79-6.74,1.77-8.57-2.23a8,8,0,0,1,1.58-8.87c1.55-1.72,3.37-1.34,5-1.09,1.05.17,1.76.78,2.62-.36.32-.43,1.32-.88,1.61-.7,1.23.79-.54,1-.46,1.78a14,14,0,0,1,0,3.48,4.58,4.58,0,0,1-.93,2.1c-.79,1-1.85.8-2-.43a3.62,3.62,0,0,0-1-2.6,6,6,0,0,1-.89-1.39c-.65.44-1.7.76-1.87,1.34A10.67,10.67,0,0,0,465,250.55Z" style="fill: #fff"/>
  </g>
</svg>
